<svg xmlns="http://www.w3.org/2000/svg" width="22.554" height="22.554" viewBox="0 0 22.554 22.554">
  <path id="facebook_7_" data-name="facebook (7)" d="M19.517,0H3.041A3.039,3.039,0,0,0,0,3.039V19.515a3.039,3.039,0,0,0,3.039,3.039h8.126l.014-8.06H9.087A.494.494,0,0,1,8.593,14l-.01-2.6a.494.494,0,0,1,.494-.5h2.09V8.4c0-2.913,1.779-4.5,4.378-4.5h2.132a.494.494,0,0,1,.494.494V6.583a.494.494,0,0,1-.494.494H16.369c-1.413,0-1.687.672-1.687,1.657v2.173h3.105a.494.494,0,0,1,.491.552l-.308,2.6a.494.494,0,0,1-.491.436H14.7l-.014,8.06h4.835a3.039,3.039,0,0,0,3.039-3.039V3.039A3.039,3.039,0,0,0,19.517,0Z" transform="translate(-0.002)" fill="#afafaf"/>
</svg>
