<svg id="instagram_9_" data-name="instagram (9)" xmlns="http://www.w3.org/2000/svg" width="22.554" height="22.554" viewBox="0 0 22.554 22.554">
  <path id="Path_61" data-name="Path 61" d="M22.487,6.628a8.279,8.279,0,0,0-.524-2.737,5.527,5.527,0,0,0-1.3-2,5.529,5.529,0,0,0-2-1.3A8.278,8.278,0,0,0,15.927.068C14.724.013,14.34,0,11.277,0S7.83.013,6.628.068A8.28,8.28,0,0,0,3.89.592a5.527,5.527,0,0,0-2,1.3,5.528,5.528,0,0,0-1.3,2A8.279,8.279,0,0,0,.068,6.627C.013,7.83,0,8.214,0,11.277s.013,3.447.068,4.65a8.277,8.277,0,0,0,.524,2.737,5.526,5.526,0,0,0,1.3,2,5.525,5.525,0,0,0,2,1.3,8.275,8.275,0,0,0,2.737.524c1.2.055,1.587.068,4.649.068s3.447-.013,4.649-.068a8.276,8.276,0,0,0,2.737-.524,5.765,5.765,0,0,0,3.3-3.3,8.277,8.277,0,0,0,.524-2.737c.055-1.2.068-1.587.068-4.649S22.541,7.83,22.487,6.628Zm-2.03,9.207a6.24,6.24,0,0,1-.388,2.094,3.734,3.734,0,0,1-2.14,2.14,6.239,6.239,0,0,1-2.094.388c-1.189.054-1.546.066-4.557.066s-3.368-.011-4.557-.066a6.241,6.241,0,0,1-2.094-.388,3.5,3.5,0,0,1-1.3-.844,3.493,3.493,0,0,1-.844-1.3A6.239,6.239,0,0,1,2.1,15.834c-.054-1.189-.066-1.546-.066-4.557S2.043,7.909,2.1,6.72a6.244,6.244,0,0,1,.388-2.094,3.5,3.5,0,0,1,.844-1.3,3.492,3.492,0,0,1,1.3-.844A6.238,6.238,0,0,1,6.72,2.1c1.189-.054,1.546-.066,4.557-.066h0c3.011,0,3.368.012,4.557.066a6.24,6.24,0,0,1,2.094.388,3.5,3.5,0,0,1,1.3.844,3.492,3.492,0,0,1,.844,1.3,6.234,6.234,0,0,1,.388,2.094c.054,1.189.066,1.546.066,4.557S20.511,14.645,20.457,15.834Zm0,0" transform="translate(0 0)" fill="#afafaf"/>
  <path id="Path_62" data-name="Path 62" d="M130.33,124.539a5.791,5.791,0,1,0,5.791,5.791A5.791,5.791,0,0,0,130.33,124.539Zm0,9.55a3.759,3.759,0,1,1,3.759-3.759A3.759,3.759,0,0,1,130.33,134.089Zm0,0" transform="translate(-119.053 -119.053)" fill="#afafaf"/>
  <path id="Path_63" data-name="Path 63" d="M364.636,89.978a1.353,1.353,0,1,1-1.353-1.353A1.353,1.353,0,0,1,364.636,89.978Zm0,0" transform="translate(-345.986 -84.721)" fill="#afafaf"/>
</svg>
