<svg xmlns="http://www.w3.org/2000/svg" width="22.554" height="22.554" viewBox="0 0 22.554 22.554">
  <path id="linkedin_1_" data-name="linkedin (1)" d="M20.514,0H2.04A2.04,2.04,0,0,0,0,2.04V20.514a2.04,2.04,0,0,0,2.04,2.04H20.514a2.04,2.04,0,0,0,2.04-2.04V2.04A2.04,2.04,0,0,0,20.514,0ZM6.979,19.475a.594.594,0,0,1-.594.594H3.858a.594.594,0,0,1-.594-.594V8.88a.594.594,0,0,1,.594-.594H6.385a.594.594,0,0,1,.594.594ZM5.122,7.288a2.4,2.4,0,1,1,2.4-2.4A2.4,2.4,0,0,1,5.122,7.288ZM20.187,19.523a.546.546,0,0,1-.546.546H16.929a.546.546,0,0,1-.546-.546V14.553c0-.741.217-3.249-1.937-3.249-1.671,0-2.01,1.716-2.079,2.486v5.732a.546.546,0,0,1-.546.546H9.2a.546.546,0,0,1-.546-.546V8.832A.546.546,0,0,1,9.2,8.286h2.623a.546.546,0,0,1,.546.546v.924a3.723,3.723,0,0,1,3.5-1.648c4.343,0,4.318,4.057,4.318,6.286v5.128Z" fill="#afafaf"/>
</svg>
