<svg xmlns="http://www.w3.org/2000/svg" width="16.736" height="11.768" viewBox="0 0 16.736 11.768">
  <g id="mail_2_" data-name="mail (2)" transform="translate(0 -76)">
    <g id="Group_35" data-name="Group 35" transform="translate(11.513 76.841)">
      <g id="Group_34" data-name="Group 34">
        <path id="Path_113" data-name="Path 113" d="M357.287,101.721l-5.076,5.043,5.076,5.043a1.454,1.454,0,0,0,.147-.63v-8.826A1.454,1.454,0,0,0,357.287,101.721Z" transform="translate(-352.211 -101.721)" fill="#c1c1c1"/>
      </g>
    </g>
    <g id="Group_37" data-name="Group 37" transform="translate(0.841 76)">
      <g id="Group_36" data-name="Group 36">
        <path id="Path_114" data-name="Path 114" d="M40.146,76H26.351a1.454,1.454,0,0,0-.63.147L32.208,82.6a1.472,1.472,0,0,0,2.08,0l6.487-6.455A1.454,1.454,0,0,0,40.146,76Z" transform="translate(-25.721 -76)" fill="#c1c1c1"/>
      </g>
    </g>
    <g id="Group_39" data-name="Group 39" transform="translate(0 76.841)">
      <g id="Group_38" data-name="Group 38">
        <path id="Path_115" data-name="Path 115" d="M.147,101.721a1.454,1.454,0,0,0-.147.63v8.826a1.454,1.454,0,0,0,.147.63l5.076-5.043Z" transform="translate(0 -101.721)" fill="#c1c1c1"/>
      </g>
    </g>
    <g id="Group_41" data-name="Group 41" transform="translate(0.841 82.577)">
      <g id="Group_40" data-name="Group 40">
        <path id="Path_116" data-name="Path 116" d="M35.7,277.211l-.718.718a2.454,2.454,0,0,1-3.467,0l-.718-.718-5.076,5.043a1.454,1.454,0,0,0,.63.147H40.146a1.454,1.454,0,0,0,.63-.147Z" transform="translate(-25.721 -277.211)" fill="#c1c1c1"/>
      </g>
    </g>
  </g>
</svg>
