<svg xmlns="http://www.w3.org/2000/svg" width="131.42" height="126.106" viewBox="0 0 131.42 126.106">
  <g id="newspaper_1_" data-name="newspaper (1)" transform="translate(28.927 -16.495) rotate(14)" opacity="0.361">
    <path id="Path_100" data-name="Path 100" d="M106.65,39.317H82.187v-19.1A3.219,3.219,0,0,0,78.968,17H3.219A3.219,3.219,0,0,0,0,20.219v83.26a16.112,16.112,0,0,0,16.094,16.094H93.775a16.112,16.112,0,0,0,16.094-16.094V42.536A3.219,3.219,0,0,0,106.65,39.317ZM16.094,113.136a9.667,9.667,0,0,1-9.656-9.656V23.438H75.75c0,85.077-.041,80.347.074,81.56a16.043,16.043,0,0,0,3.153,8.138Zm87.337-9.656a9.667,9.667,0,0,1-9.656,9.656H91.844a9.667,9.667,0,0,1-9.656-9.656V45.755h21.244Z" fill="#ebebeb"/>
    <path id="Path_101" data-name="Path 101" d="M116.287,89H68.219a3.219,3.219,0,0,0,0,6.438h48.068a3.219,3.219,0,1,0,0-6.438Z" transform="translate(-51.052 -56.55)" fill="#ebebeb"/>
    <path id="Path_102" data-name="Path 102" d="M116.287,153H68.219a3.219,3.219,0,0,0,0,6.438h48.068a3.219,3.219,0,0,0,0-6.438Z" transform="translate(-51.052 -106.816)" fill="#ebebeb"/>
    <path id="Path_103" data-name="Path 103" d="M116.287,393H68.219a3.219,3.219,0,1,0,0,6.438h48.068a3.219,3.219,0,1,0,0-6.438Z" transform="translate(-51.052 -295.315)" fill="#ebebeb"/>
    <path id="Path_104" data-name="Path 104" d="M204.253,217H180.219A3.219,3.219,0,0,0,177,220.219v24.034a3.219,3.219,0,0,0,3.219,3.219h24.034a3.219,3.219,0,0,0,3.219-3.219V220.219A3.219,3.219,0,0,0,204.253,217Zm-3.219,24.034h-17.6v-17.6h17.6Z" transform="translate(-139.018 -157.082)" fill="#ebebeb"/>
    <path id="Path_105" data-name="Path 105" d="M68.219,247.438h10.3a3.219,3.219,0,0,0,0-6.438h-10.3a3.219,3.219,0,0,0,0,6.438Z" transform="translate(-51.052 -175.932)" fill="#ebebeb"/>
    <path id="Path_106" data-name="Path 106" d="M68.219,311.438h10.3a3.219,3.219,0,0,0,0-6.438h-10.3a3.219,3.219,0,0,0,0,6.438Z" transform="translate(-51.052 -226.199)" fill="#ebebeb"/>
  </g>
</svg>
