<svg xmlns="http://www.w3.org/2000/svg" width="127.169" height="132.229" viewBox="0 0 127.169 132.229">
  <g id="statistics_1_" data-name="statistics (1)" transform="translate(25.086 -1.519) rotate(13)">
    <path id="Path_107" data-name="Path 107" d="M40.8,52.275a9.765,9.765,0,0,0,6.8-2.75l9.616,4.808a9.8,9.8,0,1,0,18.568-3.014l13.07-13.07a9.8,9.8,0,0,0,13.577-11.775l11.355-8.516a9.789,9.789,0,1,0-3.924-5.225L98.505,21.249a9.8,9.8,0,0,0-14.273,12.38L71.162,46.7A9.78,9.78,0,0,0,60.142,48.49l-9.616-4.808A9.8,9.8,0,1,0,40.8,52.275Zm78.412-45.74A3.267,3.267,0,1,1,115.947,9.8,3.271,3.271,0,0,1,119.214,6.534Zm-26.137,19.6A3.267,3.267,0,1,1,89.809,29.4,3.271,3.271,0,0,1,93.076,26.137ZM66.939,52.275a3.267,3.267,0,1,1-3.267,3.267A3.271,3.271,0,0,1,66.939,52.275ZM40.8,39.206a3.267,3.267,0,1,1-3.267,3.267A3.271,3.271,0,0,1,40.8,39.206Zm0,0" transform="translate(-24.248)" fill="#f7f7f7"/>
    <path id="Path_108" data-name="Path 108" d="M108.252,222.313h-3.485V153.267A3.267,3.267,0,0,0,101.5,150H88.432a3.267,3.267,0,0,0-3.267,3.267v69.046H78.63V172.87a3.267,3.267,0,0,0-3.267-3.267H62.294a3.267,3.267,0,0,0-3.267,3.267v49.443H52.493V199.008a3.267,3.267,0,0,0-3.267-3.267H36.157a3.267,3.267,0,0,0-3.267,3.267v23.306H26.355V185.939a3.267,3.267,0,0,0-3.267-3.267H10.019a3.267,3.267,0,0,0-3.267,3.267v36.375H3.267a3.267,3.267,0,1,0,0,6.534H108.252a3.267,3.267,0,1,0,0-6.534ZM91.7,156.534h6.534v65.779H91.7Zm-26.137,19.6H72.1v46.176H65.561ZM39.424,202.275h6.534v20.039H39.424ZM13.287,189.206h6.534v33.107H13.287Zm0,0" transform="translate(0 -117.328)" fill="#f7f7f7"/>
  </g>
</svg>
