<svg xmlns="http://www.w3.org/2000/svg" width="22.966" height="18.665" viewBox="0 0 22.966 18.665">
  <path id="twitter" d="M7.223,19.165A13.315,13.315,0,0,0,20.629,5.758q0-.306-.013-.609a9.587,9.587,0,0,0,2.35-2.44,9.4,9.4,0,0,1-2.706.742A4.729,4.729,0,0,0,22.332.845,9.453,9.453,0,0,1,19.34,1.989a4.716,4.716,0,0,0-8.029,4.3A13.378,13.378,0,0,1,1.6,1.363a4.716,4.716,0,0,0,1.459,6.29A4.676,4.676,0,0,1,.923,7.064c0,.02,0,.039,0,.06A4.713,4.713,0,0,0,4.7,11.743a4.705,4.705,0,0,1-2.128.081,4.717,4.717,0,0,0,4.4,3.273,9.453,9.453,0,0,1-5.852,2.017A9.607,9.607,0,0,1,0,17.048a13.338,13.338,0,0,0,7.223,2.117" transform="translate(0 -0.5)" fill="#afafaf"/>
</svg>
